<svg width="125" height="125" viewBox="0 0 125 125" fill="none" xmlns="http://www.w3.org/2000/svg">
<rect width="125" height="125" rx="5" fill="#D1D5DB"/>
<path fill-rule="evenodd" clip-rule="evenodd" d="M35.8333 46.25C35.8333 43.2585 38.2584 40.8333 41.25 40.8333H83.75C86.7415 40.8333 89.1666 43.2585 89.1666 46.25V79.5833C89.1666 82.5749 86.7415 85 83.75 85H41.25C38.2584 85 35.8333 82.5749 35.8333 79.5833V46.25ZM41.25 43.3333C39.6391 43.3333 38.3333 44.6392 38.3333 46.25V79.5833C38.3333 81.1942 39.6391 82.5 41.25 82.5H83.75C85.3608 82.5 86.6666 81.1942 86.6666 79.5833V46.25C86.6666 44.6392 85.3608 43.3333 83.75 43.3333H41.25Z" fill="#9CA3AF"/>
<circle cx="48.3333" cy="52.5" r="5.41667" fill="#9CA3AF"/>
<path d="M42.9166 75.8333V72.7737C42.9166 72.3317 43.0922 71.9077 43.4048 71.5952L50.5429 64.4571C51.172 63.828 52.1842 63.8039 52.8425 64.4023L55.0905 66.446C55.7421 67.0383 56.7421 67.0216 57.3734 66.4077L70.0717 54.0622C70.7251 53.427 71.7676 53.4343 72.412 54.0787L82.4285 64.0952C82.741 64.4077 82.9166 64.8317 82.9166 65.2737V75.8333C82.9166 76.7538 82.1704 77.5 81.25 77.5H44.5833C43.6628 77.5 42.9166 76.7538 42.9166 75.8333Z" fill="#9CA3AF"/>
</svg>
